<?xml version="1.0" standalone="no"?>
<!DOCTYPE svg PUBLIC "-//W3C//DTD SVG 20010904//EN"
 "http://www.w3.org/TR/2001/REC-SVG-20010904/DTD/svg10.dtd">
<svg version="1.0" xmlns="http://www.w3.org/2000/svg"
 width="194.000000pt" height="259.000000pt" viewBox="0 0 194.000000 259.000000"
 preserveAspectRatio="xMidYMid meet">
<metadata>
Created by potrace 1.16, written by Peter Selinger 2001-2019
</metadata>
<g transform="translate(0.000000,259.000000) scale(0.100000,-0.100000)"
fill="#000000" stroke="none">
<path d="M7 2583 c-4 -3 -7 -53 -7 -110 0 -94 2 -103 19 -103 20 0 200 17 269
25 38 5 60 -7 30 -17 -7 -3 5 -5 27 -5 22 0 30 2 18 4 -13 2 -23 8 -23 13 0
10 17 13 165 30 242 28 339 40 460 60 97 16 349 41 363 35 17 -6 15 -35 -4
-35 -8 0 -13 -4 -10 -8 3 -5 -20 -10 -51 -11 -31 -1 -60 -4 -63 -6 -4 -2 -31
-7 -61 -10 -30 -4 -65 -9 -79 -11 -14 -2 -78 -9 -142 -16 -64 -6 -115 -16
-112 -20 3 -4 -2 -8 -11 -8 -9 0 -13 5 -10 10 4 7 -2 9 -17 5 -12 -3 -33 -7
-45 -8 -13 0 -23 -5 -23 -9 0 -4 -13 -5 -30 -2 -17 4 -36 1 -45 -6 -8 -6 -19
-9 -24 -5 -6 3 -37 1 -68 -6 -71 -14 -97 -17 -198 -23 -44 -3 -105 -9 -135
-12 -30 -4 -76 -8 -102 -9 -26 0 -50 -4 -54 -7 -4 -4 -15 -3 -25 3 -19 9 -19
0 -19 -292 l1 -301 107 6 c59 4 163 11 232 16 69 5 202 14 295 20 94 6 199 12
235 15 36 3 103 7 150 10 47 3 109 8 138 10 l52 5 0 -40 c0 -22 -5 -40 -11
-40 -5 0 -7 5 -4 10 3 6 2 10 -3 10 -6 0 -13 -8 -17 -17 -7 -17 -8 -16 -15 2
-8 19 -8 19 -18 -5 l-10 -25 -9 24 -10 25 -7 -25 -6 -24 -15 25 c-13 22 -14
23 -15 5 -1 -19 -1 -19 -14 -2 -10 13 -15 15 -18 5 -4 -11 -8 -11 -20 0 -13
10 -17 9 -22 -10 -5 -14 -9 -18 -13 -10 -3 7 -24 12 -54 12 -31 0 -48 -4 -44
-10 3 -5 1 -10 -4 -10 -6 0 -11 6 -11 13 0 9 -2 9 -8 -1 -5 -7 -16 -10 -25 -6
-10 4 -17 1 -17 -6 0 -10 -3 -10 -15 0 -11 9 -15 9 -15 1 0 -9 -5 -9 -20 -1
-11 6 -20 7 -20 2 0 -12 -43 -9 -52 3 -5 6 -8 6 -8 -1 0 -16 -90 -17 -90 -1 0
8 -3 8 -9 -2 -6 -8 -19 -12 -35 -9 -15 3 -29 2 -32 -3 -2 -5 -16 -4 -30 1 -14
6 -23 6 -20 2 2 -4 -43 -6 -102 -5 -75 3 -102 0 -92 -7 11 -7 4 -10 -27 -10
-28 0 -43 4 -43 13 0 6 -5 4 -11 -7 -9 -15 -13 -16 -20 -5 -8 12 -11 12 -19
-1 -5 -8 -10 -10 -10 -5 0 6 -11 12 -26 13 -14 1 -23 -2 -19 -8 3 -6 1 -10 -4
-10 -6 0 -11 5 -11 10 0 6 -5 10 -11 10 -5 0 -7 -4 -4 -10 4 -6 -9 -10 -32 -9
-38 1 -38 1 -8 9 l30 8 -32 1 -32 1 0 -90 c1 -76 4 -90 18 -90 14 0 14 -2 1
-10 -8 -5 -12 -12 -8 -15 10 -10 82 -14 88 -5 6 10 97 27 138 26 18 -1 28 3
24 9 -3 6 2 4 11 -4 9 -7 26 -11 37 -8 10 3 24 -1 31 -9 13 -16 33 -19 24 -4
-3 6 2 10 12 10 11 0 24 5 31 12 21 21 13 -1 -10 -27 -11 -13 -26 -22 -32 -18
-6 3 -5 0 2 -8 11 -12 15 -11 23 4 6 9 15 15 20 11 6 -3 26 -3 45 0 25 5 34
12 34 26 0 17 5 19 32 13 22 -4 29 -3 24 6 -4 6 9 2 29 -9 21 -12 40 -19 43
-16 3 3 11 1 19 -5 8 -7 13 -8 13 -1 0 5 -14 15 -30 21 -16 5 -30 12 -30 14 0
5 31 2 56 -6 11 -4 41 -3 67 2 38 7 49 5 62 -9 23 -26 19 -47 -5 -25 -11 10
-20 14 -20 10 0 -5 -5 -4 -12 3 -18 18 -38 15 -37 -5 0 -10 3 -13 5 -7 4 9 13
9 34 1 35 -13 38 -23 10 -30 -11 -3 -20 -11 -20 -19 0 -9 3 -9 8 -2 12 18 50
23 56 8 4 -10 -2 -14 -19 -14 -14 0 -25 -4 -25 -10 0 -13 0 -13 49 5 35 12 41
12 41 0 0 -8 4 -17 10 -20 6 -3 7 1 4 9 -4 10 -1 16 7 17 8 1 20 2 28 3 24 2
23 23 -1 31 -13 4 -29 6 -35 6 -19 -3 -16 12 7 32 22 18 45 14 33 -6 -3 -7 3
-4 14 6 11 9 28 17 39 18 18 0 18 1 -1 8 -11 5 -23 7 -26 5 -3 -2 -6 3 -6 11
0 9 4 11 11 6 6 -5 36 -8 66 -7 50 3 52 2 27 -9 -15 -6 -25 -14 -22 -17 3 -3
-1 -11 -10 -18 -17 -14 -20 -30 -4 -30 5 0 8 4 4 9 -3 6 4 15 16 22 17 9 24 8
31 -2 8 -11 9 -10 4 4 -4 14 1 17 30 17 19 0 33 4 29 9 -3 5 4 12 15 16 11 3
20 11 20 17 0 5 7 7 16 4 14 -5 15 -4 4 9 -10 12 -9 16 6 22 11 3 22 11 26 17
5 8 8 7 8 -1 0 -8 7 -10 18 -6 11 4 8 -1 -8 -15 -14 -12 -20 -22 -15 -22 6 0
-9 -12 -33 -26 -23 -14 -40 -29 -37 -34 3 -5 -3 -9 -12 -9 -41 -1 -53 -5 -50
-15 3 -6 -3 -20 -12 -31 -9 -12 -10 -15 -1 -7 31 27 86 2 57 -27 -8 -8 -5 -11
10 -11 36 0 37 -20 1 -21 -20 -1 -25 -3 -14 -6 15 -4 16 -7 5 -14 -11 -7 -10
-11 6 -23 20 -15 20 -15 -2 -16 -15 0 -23 -6 -23 -17 0 -13 3 -14 12 -5 7 7
21 12 33 11 20 0 20 0 0 -9 -14 -6 -16 -9 -5 -10 8 -1 2 -8 -15 -15 -16 -8
-24 -14 -16 -15 10 0 11 -8 7 -27 -4 -16 -8 -36 -9 -45 -1 -19 -11 -21 -42 -9
-11 5 -28 4 -39 -1 -13 -7 -16 -7 -11 2 4 7 2 10 -6 9 -8 -1 -23 2 -34 6 -19
9 -19 9 5 16 18 5 11 7 -27 8 -28 1 -54 5 -57 10 -3 5 16 8 43 7 28 -1 48 1
45 6 -3 4 -15 8 -28 8 -12 0 -31 7 -42 15 -18 14 -18 14 11 15 28 1 28 2 10
12 -11 6 -23 16 -27 22 -6 8 -8 8 -8 0 0 -6 -10 -10 -22 -9 -13 1 -30 -3 -38
-10 -8 -7 -25 -16 -37 -19 -12 -4 -32 -20 -43 -37 -12 -16 -28 -29 -36 -29 -8
0 -13 -4 -9 -9 3 -5 -4 -16 -16 -24 -13 -9 -16 -17 -10 -22 16 -10 13 -23 -6
-28 -12 -3 -7 -7 15 -12 31 -7 32 -9 17 -24 -13 -13 -17 -14 -24 -2 -5 7 -13
11 -19 7 -5 -3 -12 3 -15 14 -3 13 1 21 14 25 18 6 16 10 -16 42 -19 19 -32
40 -29 46 3 7 0 5 -8 -3 -7 -9 -22 -14 -33 -13 l-20 3 20 -9 c11 -4 26 -6 34
-3 9 3 12 0 9 -9 -3 -8 -11 -14 -19 -14 -21 0 -27 -14 -22 -47 2 -16 0 -35 -5
-41 -12 -16 -22 -58 -12 -52 4 3 13 -2 20 -10 11 -13 10 -14 -5 -9 -15 6 -16
4 -5 -15 11 -21 13 -21 36 -6 23 15 24 15 24 -10 0 -16 -6 -25 -15 -25 -8 0
-15 -6 -15 -14 0 -8 -5 -18 -12 -22 -7 -5 -9 0 -6 14 4 15 0 22 -18 26 -13 4
-24 11 -24 17 0 6 5 7 12 3 7 -4 8 -3 4 4 -5 9 -12 8 -26 -1 -19 -11 -28 -30
-12 -24 4 1 8 -2 9 -8 2 -5 -8 -10 -21 -9 -18 1 -25 -5 -29 -22 -2 -13 0 -21
4 -18 5 3 9 1 9 -4 0 -6 -7 -12 -15 -16 -8 -3 -15 -2 -15 3 0 5 -9 11 -20 14
-18 5 -25 -3 -21 -25 0 -5 -4 -8 -9 -8 -6 0 -8 -10 -5 -23 10 -39 -61 -81 -86
-51 -16 20 -28 8 -23 -22 3 -16 1 -23 -6 -19 -6 3 -10 -3 -10 -16 0 -12 3 -19
7 -16 3 4 12 2 19 -4 10 -8 11 -5 7 13 -3 17 -2 19 5 9 7 -10 11 -10 17 -1 4
6 13 9 20 6 7 -2 26 -1 42 3 19 5 35 3 53 -8 14 -10 21 -11 17 -3 -5 6 -4 12
2 12 5 0 12 -4 16 -10 3 -6 15 -6 30 0 16 6 25 5 29 -3 3 -8 5 -7 5 2 1 11 5
10 21 -4 17 -16 21 -16 35 -2 9 9 23 13 31 10 9 -3 32 -6 53 -7 23 -1 35 -6
33 -14 -1 -6 3 -12 9 -12 5 0 8 -4 4 -9 -6 -11 33 -26 42 -17 4 3 -1 6 -10 6
-10 0 -17 5 -17 11 0 5 4 8 8 5 4 -2 14 0 22 5 13 9 13 10 0 8 -31 -3 -36 2
-34 34 3 54 4 58 14 52 6 -4 8 -11 5 -16 -4 -5 -1 -9 4 -9 6 0 11 -6 11 -14 0
-8 7 -16 15 -20 12 -4 13 -2 5 13 -7 15 -6 20 7 25 19 8 32 -2 17 -12 -13 -9
-13 -53 1 -49 5 2 9 11 7 20 -3 20 28 38 57 32 14 -2 24 2 28 12 6 14 8 14 20
-3 7 -10 13 -12 13 -5 0 7 4 10 9 6 5 -3 12 -1 16 5 9 15 45 12 45 -4 0 -7 7
-19 15 -26 12 -10 15 -10 15 0 0 10 3 10 15 0 12 -10 15 -10 15 1 0 10 2 11 8
2 4 -7 13 -9 21 -4 7 5 23 6 34 3 18 -5 19 -3 7 10 -10 11 -23 13 -47 8 -23
-6 -36 -4 -44 6 -6 8 -16 11 -23 8 -6 -3 -2 2 9 11 19 15 27 15 70 0 11 -4 7
2 -10 14 -23 16 -26 21 -12 21 10 0 15 5 12 10 -3 6 -16 10 -27 10 -12 0 -19
-3 -15 -6 10 -11 -21 -34 -40 -31 -10 2 -31 9 -46 15 -35 15 -40 15 -32 2 4
-6 -6 -10 -22 -11 -25 0 -26 -1 -8 -9 16 -7 13 -9 -17 -9 -20 -1 -38 -6 -40
-12 -4 -12 -38 -1 -38 12 0 5 16 9 36 9 21 0 33 4 29 10 -4 6 -3 10 2 9 4 -1
17 -1 28 0 14 1 16 4 8 9 -9 5 -1 13 23 24 22 10 31 11 24 4 -11 -14 -4 -26
17 -26 8 0 11 5 7 11 -5 8 -1 8 14 0 13 -7 23 -7 27 -1 3 5 -9 17 -27 26 -27
14 -30 18 -16 23 10 3 38 38 63 76 46 72 52 75 35 15 -6 -22 -6 -38 0 -44 16
-16 12 -30 -5 -16 -12 10 -15 10 -15 -4 0 -15 12 -21 33 -17 5 1 5 -3 2 -10
-5 -7 3 -9 25 -6 21 4 33 1 37 -9 3 -8 9 -14 15 -14 5 0 6 5 3 10 -3 6 3 10
14 10 12 0 21 -6 21 -12 0 -9 3 -9 8 -2 4 6 15 13 25 17 9 3 18 17 19 29 4 63
0 92 -16 103 -15 12 -15 13 1 19 10 4 19 3 21 -2 1 -5 13 -7 26 -5 22 5 46 38
60 86 3 9 14 20 23 23 48 16 84 37 98 57 13 19 17 20 25 7 5 -8 10 -11 10 -7
0 5 -9 20 -20 34 -11 14 -20 36 -20 49 0 12 -7 29 -15 38 -16 16 -21 56 -6 56
5 0 12 11 15 25 4 14 11 25 16 25 13 0 13 -17 0 -25 -5 -3 -10 -11 -10 -16 0
-6 7 -3 16 6 9 9 14 25 11 35 -4 15 0 20 16 21 12 1 27 2 32 4 6 1 19 3 30 4
17 1 18 3 5 11 -20 13 -33 13 -25 0 3 -6 -1 -7 -9 -4 -9 3 -16 10 -16 16 0 5
5 6 10 3 6 -3 10 -1 10 5 0 6 5 8 13 3 22 -14 60 -15 51 -2 -5 9 -2 10 10 6
10 -4 20 -7 22 -7 2 0 4 -4 4 -10 0 -5 -7 -7 -15 -4 -8 4 -15 1 -15 -6 0 -6
-5 -8 -12 -4 -7 4 -8 3 -4 -4 4 -6 13 -9 20 -6 7 3 19 -2 26 -11 7 -8 20 -15
29 -15 14 0 14 2 1 10 -8 5 -12 12 -8 15 3 4 12 0 19 -7 10 -12 18 -8 47 24
19 21 32 42 28 46 -4 4 -14 -1 -21 -12 -15 -20 -35 -14 -35 10 0 8 4 13 9 10
5 -4 6 4 3 16 -5 19 -7 20 -10 6 -3 -16 -6 -16 -38 -3 -30 12 -35 12 -43 -3
-9 -16 -10 -16 -15 1 -17 50 -18 48 34 45 28 -2 50 -6 50 -9 0 -3 15 -10 34
-16 27 -8 36 -8 40 2 2 7 13 15 24 17 15 4 19 2 15 -8 -3 -9 2 -14 16 -14 12
0 24 -7 27 -15 4 -8 10 -13 14 -10 4 3 10 -5 13 -18 6 -20 4 -20 -19 6 -13 15
-24 23 -24 17 0 -7 -6 -8 -19 0 -29 15 -39 12 -17 -5 19 -15 19 -15 -1 -15
-20 0 -41 -32 -35 -53 1 -4 -4 -6 -10 -5 -7 2 -12 -5 -12 -14 1 -11 -4 -15
-15 -11 -9 4 -13 3 -9 -2 4 -4 2 -17 -4 -29 -10 -19 -9 -19 12 2 17 19 31 23
66 21 37 -3 47 1 72 28 21 21 34 28 43 22 8 -5 17 -9 20 -9 3 0 7 63 8 140 2
139 1 140 -21 141 -72 2 -247 -2 -270 -7 -25 -5 -28 -3 -28 20 0 24 4 26 48
28 26 0 83 2 127 4 44 2 94 3 112 3 l32 1 1 374 c0 255 -3 377 -11 381 -5 4
-27 4 -47 -1 -24 -5 -31 -9 -19 -12 18 -4 18 -4 0 -17 -16 -12 -19 -11 -25 8
-6 22 -6 21 -7 -2 -1 -19 -5 -23 -25 -19 -14 3 -31 1 -38 -3 -7 -5 -16 -3 -20
4 -6 9 -8 9 -8 0 0 -7 -10 -17 -21 -24 -15 -8 -19 -8 -15 0 4 6 3 11 -3 11 -5
0 -11 -6 -14 -12 -3 -10 -7 -10 -20 1 -14 11 -18 11 -23 -3 -7 -18 -34 -22
-34 -6 0 7 -6 7 -20 0 -17 -9 -20 -8 -20 10 0 12 -7 20 -17 20 -15 0 -16 -2
-3 -10 17 -10 14 -15 -17 -24 -16 -5 -25 -2 -33 14 -6 12 -10 26 -7 33 2 7 51
19 118 29 l114 16 -125 -1 -125 -2 0 -35 c0 -19 -3 -39 -6 -45 -4 -5 -7 -53
-8 -105 -2 -183 -12 -304 -27 -316 -18 -15 -18 -25 1 -18 17 7 21 -11 5 -21
-6 -3 -10 -10 -10 -16 0 -5 9 -4 20 3 14 9 22 10 31 1 15 -15 -10 -52 -51 -76
-30 -18 -30 -18 -32 5 -6 86 -5 104 5 110 8 5 4 8 -8 8 -18 0 -20 -6 -18 -62
1 -35 -1 -53 -4 -40 -2 12 -9 19 -15 16 -6 -4 -9 48 -6 160 2 132 6 167 17
171 8 3 18 0 23 -7 5 -9 8 -6 8 10 0 19 -3 21 -19 13 -16 -9 -19 -6 -25 21 -6
30 6 58 25 58 5 0 9 -10 9 -22 0 -18 6 -23 25 -23 14 0 25 3 25 8 0 4 -9 7
-20 7 -16 0 -20 7 -20 31 0 28 -1 29 -16 15 -24 -24 -35 -19 -22 9 7 15 17 24
25 21 8 -4 13 2 13 17 0 17 -2 19 -9 8 -5 -8 -16 -11 -27 -7 -16 6 -16 7 2 21
11 8 14 15 7 15 -7 0 -12 8 -11 18 4 55 14 52 -196 52 -189 0 -194 0 -189 -20
3 -11 0 -26 -6 -33 -6 -8 -8 -17 -4 -20 3 -4 1 -7 -6 -7 -8 0 -11 8 -8 23 3
12 1 31 -3 42 -5 11 -9 14 -9 7 -1 -9 -6 -10 -20 -2 -26 13 -294 14 -286 0 3
-5 -1 -10 -10 -10 -9 0 -13 5 -10 10 7 11 -597 15 -608 3z"/>
<path d="M1842 655 c-7 -8 -8 -15 -3 -15 10 0 27 -57 22 -75 -1 -5 3 -4 10 3
7 6 22 12 34 11 19 0 19 -1 -2 -11 -13 -6 -23 -15 -23 -21 0 -5 -7 -7 -15 -3
-8 3 -15 1 -15 -4 0 -6 9 -10 21 -10 11 0 17 -4 14 -10 -3 -5 -16 -8 -28 -6
-18 3 -22 9 -21 40 1 40 -18 49 -35 17 -8 -14 -7 -20 4 -25 8 -3 15 -11 15
-18 0 -6 -15 3 -33 20 -18 18 -36 29 -40 26 -4 -4 -13 -1 -22 6 -10 8 -15 9
-15 2 0 -6 9 -16 21 -22 11 -7 18 -18 15 -25 -3 -8 -1 -17 5 -20 5 -4 7 -11 4
-16 -4 -5 4 -9 17 -9 l22 0 -23 16 c-15 11 -19 20 -13 26 7 7 21 2 44 -14 18
-14 40 -23 48 -21 8 2 21 -6 28 -17 7 -11 8 -20 3 -20 -5 0 -7 -9 -4 -20 3
-11 8 -18 12 -16 4 3 7 -4 7 -14 0 -13 -4 -16 -12 -9 -12 10 -44 -13 -44 -32
0 -15 17 -10 24 7 3 9 12 14 20 11 7 -3 18 -1 24 5 10 10 5 48 -7 48 -4 0 -8
16 -8 35 0 27 3 32 13 24 21 -18 35 0 32 42 -2 35 -6 40 -32 47 -16 4 -31 14
-34 22 -3 13 -2 13 7 0 10 -13 15 -8 12 13 0 4 4 7 10 7 7 0 0 9 -14 20 -30
23 -28 23 -45 5z"/>
<path d="M1590 522 c19 -16 21 -22 11 -40 -8 -15 -9 -28 -2 -39 7 -12 5 -21
-7 -30 -15 -11 -15 -12 6 -13 13 0 20 -4 17 -10 -3 -5 3 -10 15 -10 11 0 23
-6 26 -14 3 -8 13 -12 26 -8 14 3 19 1 15 -6 -4 -5 -1 -13 5 -15 8 -3 5 -6 -6
-6 -14 -1 -16 -4 -7 -14 6 -8 8 -17 4 -20 -13 -13 -30 -7 -41 16 -9 18 -11 19
-11 4 -1 -17 -2 -17 -17 -3 -17 18 -34 21 -34 7 0 -5 16 -15 35 -22 28 -11 34
-17 29 -34 -3 -11 -13 -26 -23 -34 -15 -12 -15 -13 0 -8 9 3 22 0 28 -6 9 -9
10 -7 5 8 -7 17 -6 18 8 7 13 -10 17 -10 22 3 3 9 2 14 -2 11 -4 -2 -14 -1
-22 4 -13 8 -12 12 5 24 11 8 23 12 27 10 12 -8 20 17 22 72 1 38 -2 54 -11
55 -7 1 -22 2 -32 3 -11 0 -23 5 -28 10 -5 5 -3 6 5 2 13 -8 17 6 5 18 -8 8
-9 13 -12 42 0 8 -6 12 -11 9 -6 -4 -8 -11 -5 -16 4 -5 1 -9 -4 -9 -6 0 -11 8
-11 18 -1 22 -23 52 -40 52 -7 0 -2 -8 10 -18z"/>
<path d="M1399 407 c7 -9 18 -14 25 -10 7 4 7 1 -1 -7 -10 -11 -8 -17 10 -33
l22 -19 -25 7 c-21 7 -23 5 -13 -6 9 -11 7 -19 -7 -36 -10 -13 -22 -23 -27
-23 -6 0 -10 -7 -10 -15 0 -10 4 -12 12 -5 7 5 16 6 20 2 5 -4 6 -2 2 3 -3 6
-2 17 3 25 7 11 10 7 15 -13 8 -29 20 -35 28 -14 4 9 8 8 16 -3 17 -24 13 -37
-12 -42 -28 -5 -49 1 -42 12 3 5 1 11 -5 15 -5 3 -10 -1 -10 -10 0 -8 7 -18
15 -21 8 -4 12 -10 9 -15 -3 -5 0 -9 5 -9 6 0 11 4 11 8 0 5 7 9 15 9 8 0 12
-4 9 -8 -2 -4 0 -10 6 -14 5 -3 10 3 10 13 0 11 8 26 18 33 14 11 15 11 5 -1
-20 -21 -15 -32 9 -24 21 6 21 6 -3 -17 -28 -28 -34 -46 -13 -46 8 0 13 6 12
13 -2 7 2 14 7 16 6 2 10 -14 11 -34 1 -21 -3 -38 -7 -38 -15 0 -10 -58 5 -63
15 -6 26 1 26 14 0 5 -7 6 -15 3 -10 -4 -15 0 -15 10 0 13 4 15 19 6 11 -5 22
-15 24 -22 4 -10 6 -10 6 0 1 6 10 12 21 12 25 0 25 2 1 41 -12 19 -20 26 -23
17 -4 -10 -8 -9 -21 3 -19 19 -13 30 11 21 15 -5 15 -4 0 12 -10 9 -18 23 -18
29 0 21 17 40 29 33 6 -4 11 0 11 10 0 16 1 16 15 -2 17 -22 20 -12 5 16 -10
19 -11 19 -31 -1 l-20 -20 -29 25 c-17 13 -39 27 -50 31 -11 3 -20 11 -20 16
0 6 5 7 10 4 6 -3 10 1 10 10 0 10 5 13 13 9 9 -6 9 -5 0 8 -7 8 -11 18 -8 21
3 4 2 5 -1 2 -4 -2 -15 10 -24 28 -10 17 -21 32 -26 32 -5 0 -16 4 -24 10 -13
8 -13 7 -1 -8z"/>
</g>
</svg>
